<?xml version="1.0" encoding="utf-8"?>
<!-- Generator: Adobe Illustrator 19.0.1, SVG Export Plug-In . SVG Version: 6.00 Build 0)  -->
<svg version="1.1" xmlns="http://www.w3.org/2000/svg" xmlns:xlink="http://www.w3.org/1999/xlink" x="0px" y="0px"
	 viewBox="0 0 54 30" style="enable-background:new 0 0 54 30;" xml:space="preserve">
<style type="text/css">
	.st0{clip-path:url(#SVGID_2_);}
	.st1{fill:#A62727;}
	.st2{fill:#9E1717;}
	.st3{fill:#790000;}
	.st4{fill:#BD2800;}
	.st5{fill:#C43A00;}
	.st6{fill:#AB1F1F;}
	.st7{fill:#BF2700;}
	.st8{fill:#870000;}
	.st9{fill:#8A0000;}
	.st10{fill:#8C0000;}
	.st11{fill:#AC1F1F;}
	.st12{fill:#810000;}
	.st13{fill:#B61302;}
</style>
<g id="Layer_1">
	
		<image style="display:none;overflow:visible;" width="300" height="31" xlink:href="C9A190F3.png"  transform="matrix(1 0 0 1 -0.625 0)">
	</image>
	
		<image style="display:none;overflow:visible;" width="118" height="64" xlink:href="logo.png"  transform="matrix(0.4703 0 0 0.4703 0.625 -0.428)">
	</image>
</g>
<g id="Layer_7">
</g>
<g id="Layer_6">
</g>
<g id="Layer_5">
</g>
<g id="Layer_4">
</g>
<g id="Layer_3">
</g>
<g id="Layer_2">
</g>
<g id="Layer_15">
</g>
<g id="Layer_16">
</g>
<g id="Layer_14">
</g>
<g id="Layer_13">
</g>
<g id="Layer_12">
</g>
<g id="Layer_11">
</g>
<g id="Layer_10">
</g>
<g id="Layer_9">
</g>
<g id="Layer_8">
	<g>
		<defs>
			<path id="SVGID_1_" d="M0.6,14.7c0-1.8,0.3-3.5,1-5.3c0.6-1.7,1.6-3.3,2.8-4.7c1.2-1.4,2.7-2.5,4.5-3.3c1.8-0.8,3.8-1.3,6.1-1.3
				c2.7,0,5,0.6,6.9,1.8c2,1.2,3.4,2.7,4.4,4.6l-4.3,3c-0.4-0.8-0.8-1.5-1.4-2.1c-0.5-0.6-1.1-1-1.8-1.3c-0.6-0.3-1.3-0.6-2-0.7
				c-0.7-0.1-1.4-0.2-2-0.2c-1.4,0-2.7,0.3-3.7,0.9c-1.1,0.6-1.9,1.3-2.6,2.2c-0.7,0.9-1.2,2-1.6,3.1c-0.4,1.2-0.5,2.3-0.5,3.5
				c0,1.3,0.2,2.5,0.6,3.7s1,2.2,1.7,3.1c0.8,0.9,1.7,1.6,2.7,2.2c1.1,0.5,2.2,0.8,3.5,0.8c0.7,0,1.3-0.1,2-0.2
				c0.7-0.2,1.4-0.4,2-0.8c0.6-0.4,1.2-0.8,1.8-1.4c0.5-0.6,1-1.2,1.3-2l4.6,2.7c-0.5,1.1-1.1,2.1-2,2.9c-0.9,0.8-1.8,1.5-2.9,2.1
				c-1.1,0.6-2.2,1-3.5,1.3c-1.2,0.3-2.4,0.5-3.6,0.5c-2.1,0-4-0.4-5.7-1.3c-1.7-0.9-3.2-2-4.4-3.4c-1.2-1.4-2.2-3-2.9-4.8
				C1,18.4,0.6,16.5,0.6,14.7z M31.4,29.4V0.3h12.3c1.3,0,2.6,0.3,3.7,0.8c1.1,0.6,2.1,1.3,2.9,2.2c0.8,0.9,1.5,2,1.9,3.1
				C52.7,7.7,53,8.8,53,10c0,1.2-0.2,2.4-0.7,3.6c-0.4,1.2-1.1,2.2-1.8,3.1c-0.8,0.9-1.7,1.6-2.9,2.2c-1.1,0.5-2.4,0.8-3.7,0.8H37
				v9.8H31.4z M37,14.7h6.6c1,0,1.9-0.4,2.6-1.3c0.7-0.8,1-2,1-3.4c0-0.7-0.1-1.4-0.3-2c-0.2-0.6-0.5-1.1-0.9-1.5
				c-0.4-0.4-0.8-0.7-1.3-0.9c-0.5-0.2-1-0.3-1.5-0.3H37V14.7z"/>
		</defs>
		<clipPath id="SVGID_2_">
			<use xlink:href="#SVGID_1_"  style="overflow:visible;"/>
		</clipPath>
		<g class="st0">
			<g>
				<polygon class="st1" points="20.5,17.5 11.9,24.7 21.4,36 28.7,23.5 				"/>
			</g>
			<g>
				<polygon class="st2" points="12.9,21 21.4,32.3 1.7,33 8.4,20.3 				"/>
			</g>
			<g>
				<polygon class="st3" points="10.7,18.5 7.9,35.8 -5.1,14.2 1.9,10.5 				"/>
			</g>
			<g>
				<polygon class="st4" points="-3.3,9.2 -0.6,14.3 8.5,19.5 12.4,5.7 5.9,1 				"/>
			</g>
			<g>
				<polygon class="st5" points="10.9,3.3 -2.3,12.7 -3,3.2 8,-1.2 				"/>
			</g>
			<g>
				<polygon class="st6" points="14.9,-5.8 14.9,11.7 23,14.2 30,6 				"/>
			</g>
			<g>
				<polygon class="st3" points="5.2,-2 12.4,8.8 15,7.8 15,-9.7 				"/>
			</g>
		</g>
		<g class="st0">
			<path class="st7" d="M44.9,10.6"/>
		</g>
		<g class="st0">
			<polygon class="st8" points="43.8,8.6 45.3,21.9 57.5,17.5 45.3,8.3 			"/>
		</g>
		<g class="st0">
			<polygon class="st7" points="44.5,9.3 45.6,11.1 53,17.5 60.4,10.9 			"/>
		</g>
		<g class="st0">
			<polygon class="st9" points="58,11.6 47,11.8 44.7,4.3 54.1,0.5 57.3,6.1 			"/>
		</g>
		<g class="st0">
			<polygon class="st5" points="46.5,10 46.2,22.1 36.7,33.3 28.3,30.9 			"/>
		</g>
		<g class="st0">
			<polygon class="st10" points="46.6,12 30.4,32.4 30,8.8 42.9,9 			"/>
		</g>
		<g class="st0">
			<polygon class="st11" points="54.5,0.4 47.2,8.6 43,5.2 48.9,-3 			"/>
		</g>
		<g class="st0">
			<polygon class="st12" points="53.5,1.8 30.3,7.3 30.2,-0.8 53.3,0 			"/>
		</g>
		<g class="st0">
			<polygon class="st13" points="31.1,5.6 51.4,1.3 45,6.9 37.9,10.6 31,10.3 			"/>
		</g>
	</g>
</g>
</svg>
